<mxfile host="app.diagrams.net" agent="Mozilla/5.0 (Windows NT 10.0; Win64; x64) AppleWebKit/537.36 (KHTML, like Gecko) Chrome/127.0.0.0 Safari/537.36 Edg/127.0.0.0" version="24.7.7">
  <diagram id="C5RBs43oDa-KdzZeNtuy" name="Page-1">
    <mxGraphModel dx="1381" dy="1119" grid="1" gridSize="10" guides="1" tooltips="1" connect="1" arrows="1" fold="1" page="1" pageScale="1" pageWidth="827" pageHeight="1169" math="0" shadow="0">
      <root>
        <mxCell id="WIyWlLk6GJQsqaUBKTNV-0" />
        <mxCell id="WIyWlLk6GJQsqaUBKTNV-1" parent="WIyWlLk6GJQsqaUBKTNV-0" />
        <mxCell id="rtsmvChfrAOhQ0E6yVAE-3" value="" style="edgeStyle=orthogonalEdgeStyle;rounded=0;orthogonalLoop=1;jettySize=auto;html=1;" edge="1" parent="WIyWlLk6GJQsqaUBKTNV-1" source="rtsmvChfrAOhQ0E6yVAE-1" target="rtsmvChfrAOhQ0E6yVAE-2">
          <mxGeometry relative="1" as="geometry" />
        </mxCell>
        <mxCell id="rtsmvChfrAOhQ0E6yVAE-1" value="&lt;div style=&quot;color: #d4d4d4;background-color: #1e1e1e;font-family: Consolas, &#39;Courier New&#39;, monospace;font-weight: normal;font-size: 14px;line-height: 19px;white-space: pre;&quot;&gt;&lt;div&gt;&lt;span style=&quot;color: #dcdcaa;&quot;&gt;volcano_ms_gnss_init&lt;/span&gt;&lt;/div&gt;&lt;/div&gt;" style="text;whiteSpace=wrap;html=1;" vertex="1" parent="WIyWlLk6GJQsqaUBKTNV-1">
          <mxGeometry x="20" y="270" width="150" height="40" as="geometry" />
        </mxCell>
        <mxCell id="rtsmvChfrAOhQ0E6yVAE-9" style="edgeStyle=orthogonalEdgeStyle;rounded=0;orthogonalLoop=1;jettySize=auto;html=1;exitX=1;exitY=0.5;exitDx=0;exitDy=0;entryX=0;entryY=0.5;entryDx=0;entryDy=0;" edge="1" parent="WIyWlLk6GJQsqaUBKTNV-1" source="rtsmvChfrAOhQ0E6yVAE-2" target="rtsmvChfrAOhQ0E6yVAE-4">
          <mxGeometry relative="1" as="geometry" />
        </mxCell>
        <mxCell id="rtsmvChfrAOhQ0E6yVAE-11" value="" style="edgeStyle=orthogonalEdgeStyle;rounded=0;orthogonalLoop=1;jettySize=auto;html=1;" edge="1" parent="WIyWlLk6GJQsqaUBKTNV-1" source="rtsmvChfrAOhQ0E6yVAE-2" target="rtsmvChfrAOhQ0E6yVAE-5">
          <mxGeometry relative="1" as="geometry" />
        </mxCell>
        <mxCell id="rtsmvChfrAOhQ0E6yVAE-12" style="edgeStyle=orthogonalEdgeStyle;rounded=0;orthogonalLoop=1;jettySize=auto;html=1;exitX=1;exitY=0.5;exitDx=0;exitDy=0;entryX=0;entryY=0.5;entryDx=0;entryDy=0;" edge="1" parent="WIyWlLk6GJQsqaUBKTNV-1" source="rtsmvChfrAOhQ0E6yVAE-2" target="rtsmvChfrAOhQ0E6yVAE-6">
          <mxGeometry relative="1" as="geometry" />
        </mxCell>
        <mxCell id="rtsmvChfrAOhQ0E6yVAE-2" value="&lt;div style=&quot;color: #d4d4d4;background-color: #1e1e1e;font-family: Consolas, &#39;Courier New&#39;, monospace;font-weight: normal;font-size: 14px;line-height: 19px;white-space: pre;&quot;&gt;&lt;div&gt;&lt;span style=&quot;color: #d4d4d4;&quot;&gt;&amp;nbsp; &amp;nbsp; &lt;/span&gt;&lt;span style=&quot;color: #569cd6;&quot;&gt;auto&lt;/span&gt;&lt;span style=&quot;color: #d4d4d4;&quot;&gt; &amp;amp;gnss = &lt;/span&gt;&lt;span style=&quot;color: #4ec9b0;&quot;&gt;VolcanoGnssLocationService&lt;/span&gt;&lt;span style=&quot;color: #d4d4d4;&quot;&gt;::&lt;/span&gt;&lt;span style=&quot;color: #dcdcaa;&quot;&gt;getInstance&lt;/span&gt;&lt;span style=&quot;color: #d4d4d4;&quot;&gt;();&lt;/span&gt;&lt;/div&gt;&lt;div&gt;&lt;span style=&quot;color: #d4d4d4;&quot;&gt;&amp;nbsp; &amp;nbsp; &lt;/span&gt;&lt;span style=&quot;color: #c586c0;&quot;&gt;return&lt;/span&gt;&lt;span style=&quot;color: #d4d4d4;&quot;&gt; &lt;/span&gt;&lt;span style=&quot;color: #9cdcfe;&quot;&gt;gnss&lt;/span&gt;&lt;span style=&quot;color: #d4d4d4;&quot;&gt;.&lt;/span&gt;&lt;span style=&quot;color: #dcdcaa;&quot;&gt;ServiceInit&lt;/span&gt;&lt;span style=&quot;color: #d4d4d4;&quot;&gt;();&lt;/span&gt;&lt;/div&gt;&lt;/div&gt;" style="text;whiteSpace=wrap;html=1;" vertex="1" parent="WIyWlLk6GJQsqaUBKTNV-1">
          <mxGeometry x="240" y="260" width="460" height="60" as="geometry" />
        </mxCell>
        <mxCell id="rtsmvChfrAOhQ0E6yVAE-4" value="&lt;div style=&quot;color: #d4d4d4;background-color: #1e1e1e;font-family: Consolas, &#39;Courier New&#39;, monospace;font-weight: normal;font-size: 14px;line-height: 19px;white-space: pre;&quot;&gt;&lt;div&gt;&lt;span style=&quot;color: #dcdcaa;&quot;&gt;getTeluxDgnssManager&lt;/span&gt;&lt;span style=&quot;color: #d4d4d4;&quot;&gt;();&lt;/span&gt;&lt;/div&gt;&lt;/div&gt;" style="text;whiteSpace=wrap;html=1;" vertex="1" parent="WIyWlLk6GJQsqaUBKTNV-1">
          <mxGeometry x="750" y="200" width="210" height="40" as="geometry" />
        </mxCell>
        <mxCell id="rtsmvChfrAOhQ0E6yVAE-5" value="&lt;div style=&quot;color: #d4d4d4;background-color: #1e1e1e;font-family: Consolas, &#39;Courier New&#39;, monospace;font-weight: normal;font-size: 14px;line-height: 19px;white-space: pre;&quot;&gt;&lt;div&gt;&lt;span style=&quot;color: #dcdcaa;&quot;&gt;getTeluxLocationManager&lt;/span&gt;&lt;span style=&quot;color: #d4d4d4;&quot;&gt;();&lt;/span&gt;&lt;/div&gt;&lt;/div&gt;" style="text;whiteSpace=wrap;html=1;" vertex="1" parent="WIyWlLk6GJQsqaUBKTNV-1">
          <mxGeometry x="750" y="270" width="230" height="40" as="geometry" />
        </mxCell>
        <mxCell id="rtsmvChfrAOhQ0E6yVAE-6" value="&lt;div style=&quot;color: #d4d4d4;background-color: #1e1e1e;font-family: Consolas, &#39;Courier New&#39;, monospace;font-weight: normal;font-size: 14px;line-height: 19px;white-space: pre;&quot;&gt;&lt;div&gt;&lt;span style=&quot;color: #dcdcaa;&quot;&gt;getTeluxLocationConfigurator&lt;/span&gt;&lt;span style=&quot;color: #d4d4d4;&quot;&gt;();&lt;/span&gt;&lt;/div&gt;&lt;/div&gt;" style="text;whiteSpace=wrap;html=1;" vertex="1" parent="WIyWlLk6GJQsqaUBKTNV-1">
          <mxGeometry x="750" y="340" width="270" height="40" as="geometry" />
        </mxCell>
        <mxCell id="rtsmvChfrAOhQ0E6yVAE-13" value="&lt;div style=&quot;color: #d4d4d4;background-color: #1e1e1e;font-family: Consolas, &#39;Courier New&#39;, monospace;font-weight: normal;font-size: 14px;line-height: 19px;white-space: pre;&quot;&gt;&lt;div&gt;&lt;span style=&quot;color: #9cdcfe;&quot;&gt;LocationFactory&lt;/span&gt;&lt;span style=&quot;color: #d4d4d4;&quot;&gt;.&lt;/span&gt;&lt;span style=&quot;color: #dcdcaa;&quot;&gt;getDgnssManager&lt;/span&gt;&lt;span style=&quot;color: #d4d4d4;&quot;&gt;();&lt;/span&gt;&lt;/div&gt;&lt;/div&gt;" style="text;whiteSpace=wrap;html=1;" vertex="1" parent="WIyWlLk6GJQsqaUBKTNV-1">
          <mxGeometry x="980" y="200" width="300" height="40" as="geometry" />
        </mxCell>
        <mxCell id="rtsmvChfrAOhQ0E6yVAE-14" value="&lt;div style=&quot;color: #d4d4d4;background-color: #1e1e1e;font-family: Consolas, &#39;Courier New&#39;, monospace;font-weight: normal;font-size: 14px;line-height: 19px;white-space: pre;&quot;&gt;&lt;div&gt;&lt;span style=&quot;color: #569cd6;&quot;&gt;void&lt;/span&gt;&lt;span style=&quot;color: #d4d4d4;&quot;&gt; &lt;/span&gt;&lt;span style=&quot;color: #4ec9b0;&quot;&gt;LocationFactoryImpl&lt;/span&gt;&lt;span style=&quot;color: #d4d4d4;&quot;&gt;::&lt;/span&gt;&lt;span style=&quot;color: #dcdcaa;&quot;&gt;onGetDgnssManagerResponse&lt;/span&gt;&lt;span style=&quot;color: #d4d4d4;&quot;&gt;(&lt;/span&gt;&lt;span style=&quot;color: #4ec9b0;&quot;&gt;telux&lt;/span&gt;&lt;span style=&quot;color: #d4d4d4;&quot;&gt;::&lt;/span&gt;&lt;span style=&quot;color: #4ec9b0;&quot;&gt;common&lt;/span&gt;&lt;span style=&quot;color: #d4d4d4;&quot;&gt;::&lt;/span&gt;&lt;span style=&quot;color: #4ec9b0;&quot;&gt;ServiceStatus&lt;/span&gt;&lt;span style=&quot;color: #d4d4d4;&quot;&gt; &lt;/span&gt;&lt;span style=&quot;color: #9cdcfe;&quot;&gt;status&lt;/span&gt;&lt;span style=&quot;color: #d4d4d4;&quot;&gt;)&lt;/span&gt;&lt;/div&gt;&lt;/div&gt;" style="text;whiteSpace=wrap;html=1;" vertex="1" parent="WIyWlLk6GJQsqaUBKTNV-1">
          <mxGeometry x="1300" y="200" width="560" height="40" as="geometry" />
        </mxCell>
      </root>
    </mxGraphModel>
  </diagram>
</mxfile>
